<svg width="52" height="52" viewBox="0 0 52 52" fill="none" xmlns="http://www.w3.org/2000/svg">
<rect width="52" height="52" rx="14" fill="#E34C25"/>
<path d="M16 25C15.4477 25 15 25.4477 15 26C15 26.5523 15.4477 27 16 27V25ZM36.7071 26.7071C37.0976 26.3166 37.0976 25.6834 36.7071 25.2929L30.3431 18.9289C29.9526 18.5384 29.3195 18.5384 28.9289 18.9289C28.5384 19.3195 28.5384 19.9526 28.9289 20.3431L34.5858 26L28.9289 31.6569C28.5384 32.0474 28.5384 32.6805 28.9289 33.0711C29.3195 33.4616 29.9526 33.4616 30.3431 33.0711L36.7071 26.7071ZM16 27H36V25H16V27Z" fill="white"/>
</svg>
