<svg width="56" height="50" viewBox="0 0 56 50" fill="none" xmlns="http://www.w3.org/2000/svg">
<rect width="56" height="50" rx="8" fill="white"/>
<path fill-rule="evenodd" clip-rule="evenodd" d="M34.7781 18.8162C34.9801 18.6137 35.2538 18.5 35.5392 18.5C35.8246 18.5 36.0983 18.6137 36.3002 18.8162L41.685 24.222C41.8867 24.4247 42 24.6995 42 24.986C42 25.2726 41.8867 25.5473 41.685 25.7501L36.3002 31.1559C36.2016 31.2621 36.0828 31.3473 35.9506 31.4064C35.8185 31.4655 35.6759 31.4973 35.5313 31.4998C35.3867 31.5024 35.2431 31.4757 35.109 31.4213C34.9749 31.3669 34.8531 31.286 34.7508 31.1833C34.6485 31.0807 34.5679 30.9584 34.5137 30.8238C34.4596 30.6891 34.433 30.5449 34.4355 30.3998C34.4381 30.2546 34.4697 30.1114 34.5286 29.9788C34.5875 29.8462 34.6723 29.7268 34.7781 29.6278L38.3249 26.0672H15.077C14.7913 26.0672 14.5174 25.9533 14.3154 25.7505C14.1135 25.5478 14 25.2728 14 24.986C14 24.6993 14.1135 24.4243 14.3154 24.2215C14.5174 24.0188 14.7913 23.9049 15.077 23.9049H38.3249L34.7781 20.3442C34.5765 20.1415 34.4632 19.8667 34.4632 19.5802C34.4632 19.2937 34.5765 19.0189 34.7781 18.8162Z" fill="#E34C25"/>
</svg>
