<svg width="236" height="63" viewBox="0 0 236 63" fill="none" xmlns="http://www.w3.org/2000/svg">
<rect width="236" height="63" rx="31.5" fill="#E34C25"/>
<path d="M40.6692 29.6385H39.0073C38.9433 29.2834 38.8244 28.9709 38.6504 28.701C38.4764 28.4311 38.2633 28.2021 38.0112 28.0138C37.759 27.8256 37.4767 27.6836 37.1642 27.5877C36.8553 27.4918 36.5268 27.4439 36.1788 27.4439C35.5502 27.4439 34.9874 27.6019 34.4902 27.918C33.9966 28.234 33.606 28.6974 33.3183 29.3082C33.0342 29.919 32.8922 30.6648 32.8922 31.5455C32.8922 32.4332 33.0342 33.1825 33.3183 33.7933C33.606 34.4041 33.9984 34.8658 34.4955 35.1783C34.9927 35.4908 35.552 35.647 36.1735 35.647C36.5179 35.647 36.8446 35.6009 37.1536 35.5085C37.4661 35.4126 37.7484 35.2724 38.0005 35.0877C38.2526 34.9031 38.4657 34.6776 38.6397 34.4112C38.8173 34.1413 38.9398 33.8324 39.0073 33.4844L40.6692 33.4897C40.5804 34.0259 40.4082 34.5195 40.1525 34.9705C39.9004 35.418 39.5754 35.805 39.1777 36.1317C38.7835 36.4549 38.3325 36.7053 37.8247 36.8828C37.3169 37.0604 36.7629 37.1491 36.1628 37.1491C35.2182 37.1491 34.3766 36.9254 33.6379 36.478C32.8993 36.027 32.3169 35.3825 31.8908 34.5444C31.4682 33.7063 31.2569 32.7067 31.2569 31.5455C31.2569 30.3807 31.47 29.381 31.8961 28.5465C32.3222 27.7085 32.9046 27.0657 33.6433 26.6183C34.3819 26.1673 35.2217 25.9418 36.1628 25.9418C36.7416 25.9418 37.2814 26.0252 37.7821 26.1921C38.2864 26.3555 38.7391 26.5969 39.1404 26.9165C39.5417 27.2326 39.8737 27.6197 40.1365 28.0778C40.3993 28.5323 40.5769 29.0526 40.6692 29.6385ZM45.6573 37.1651C44.8902 37.1651 44.2208 36.9893 43.6491 36.6378C43.0774 36.2862 42.6335 35.7944 42.3174 35.1623C42.0014 34.5302 41.8434 33.7915 41.8434 32.9464C41.8434 32.0977 42.0014 31.3555 42.3174 30.7198C42.6335 30.0842 43.0774 29.5906 43.6491 29.239C44.2208 28.8874 44.8902 28.7116 45.6573 28.7116C46.4243 28.7116 47.0937 28.8874 47.6654 29.239C48.2372 29.5906 48.6811 30.0842 48.9971 30.7198C49.3132 31.3555 49.4712 32.0977 49.4712 32.9464C49.4712 33.7915 49.3132 34.5302 48.9971 35.1623C48.6811 35.7944 48.2372 36.2862 47.6654 36.6378C47.0937 36.9893 46.4243 37.1651 45.6573 37.1651ZM45.6626 35.8281C46.1598 35.8281 46.5717 35.6967 46.8984 35.4339C47.2251 35.1712 47.4666 34.8214 47.6228 34.3846C47.7826 33.9478 47.8625 33.4666 47.8625 32.9411C47.8625 32.419 47.7826 31.9396 47.6228 31.5028C47.4666 31.0625 47.2251 30.7092 46.8984 30.4428C46.5717 30.1765 46.1598 30.0433 45.6626 30.0433C45.1619 30.0433 44.7464 30.1765 44.4162 30.4428C44.0894 30.7092 43.8462 31.0625 43.6864 31.5028C43.5301 31.9396 43.452 32.419 43.452 32.9411C43.452 33.4666 43.5301 33.9478 43.6864 34.3846C43.8462 34.8214 44.0894 35.1712 44.4162 35.4339C44.7464 35.6967 45.1619 35.8281 45.6626 35.8281ZM52.5417 32.142V37H50.949V28.8182H52.4777V30.1499H52.579C52.7672 29.7166 53.0619 29.3686 53.4632 29.1058C53.868 28.843 54.3776 28.7116 54.992 28.7116C55.5495 28.7116 56.0378 28.8288 56.4568 29.0632C56.8758 29.294 57.2008 29.6385 57.4316 30.0966C57.6624 30.5547 57.7778 31.1211 57.7778 31.7958V37H56.1851V31.9876C56.1851 31.3945 56.0307 30.9311 55.7217 30.5973C55.4128 30.2599 54.9884 30.0913 54.4486 30.0913C54.0793 30.0913 53.7508 30.1712 53.4632 30.331C53.1791 30.4908 52.9536 30.7251 52.7867 31.0341C52.6233 31.3395 52.5417 31.7088 52.5417 32.142ZM61.2065 32.142V37H59.6138V28.8182H61.1426V30.1499H61.2438C61.432 29.7166 61.7268 29.3686 62.128 29.1058C62.5329 28.843 63.0425 28.7116 63.6568 28.7116C64.2143 28.7116 64.7026 28.8288 65.1216 29.0632C65.5407 29.294 65.8656 29.6385 66.0964 30.0966C66.3273 30.5547 66.4427 31.1211 66.4427 31.7958V37H64.85V31.9876C64.85 31.3945 64.6955 30.9311 64.3866 30.5973C64.0776 30.2599 63.6532 30.0913 63.1135 30.0913C62.7442 30.0913 62.4157 30.1712 62.128 30.331C61.8439 30.4908 61.6184 30.7251 61.4515 31.0341C61.2882 31.3395 61.2065 31.7088 61.2065 32.142ZM71.8049 37.1651C70.9988 37.1651 70.3046 36.9929 69.7222 36.6484C69.1434 36.3004 68.6959 35.8121 68.3799 35.1836C68.0674 34.5515 67.9111 33.8111 67.9111 32.9624C67.9111 32.1243 68.0674 31.3857 68.3799 30.7464C68.6959 30.1072 69.1363 29.6083 69.7009 29.2496C70.2691 28.891 70.9331 28.7116 71.6931 28.7116C72.1547 28.7116 72.6022 28.788 73.0354 28.9407C73.4687 29.0934 73.8575 29.3331 74.202 29.6598C74.5464 29.9865 74.8181 30.4109 75.017 30.9329C75.2158 31.4513 75.3152 32.0817 75.3152 32.8239V33.3885H68.8113V32.1953H73.7545C73.7545 31.7763 73.6693 31.4052 73.4988 31.082C73.3284 30.7553 73.0887 30.4979 72.7797 30.3097C72.4743 30.1214 72.1157 30.0273 71.7037 30.0273C71.2563 30.0273 70.8657 30.1374 70.5319 30.3576C70.2016 30.5742 69.9459 30.8583 69.7648 31.2099C69.5873 31.5579 69.4985 31.9361 69.4985 32.3445V33.2766C69.4985 33.8235 69.5944 34.2887 69.7861 34.6722C69.9814 35.0558 70.2531 35.3487 70.6011 35.5511C70.9491 35.75 71.3557 35.8494 71.8209 35.8494C72.1228 35.8494 72.398 35.8068 72.6466 35.7216C72.8951 35.6328 73.11 35.5014 73.2911 35.3274C73.4722 35.1534 73.6107 34.9386 73.7066 34.6829L75.214 34.9545C75.0933 35.3984 74.8767 35.7873 74.5642 36.1211C74.2552 36.4513 73.8664 36.7088 73.3976 36.8935C72.9324 37.0746 72.4015 37.1651 71.8049 37.1651ZM80.2288 37.1651C79.4369 37.1651 78.755 36.9858 78.1833 36.6271C77.6151 36.2649 77.1783 35.766 76.8729 35.1303C76.5675 34.4947 76.4148 33.7667 76.4148 32.9464C76.4148 32.1154 76.5711 31.3821 76.8836 30.7464C77.1961 30.1072 77.6364 29.6083 78.2046 29.2496C78.7728 28.891 79.4422 28.7116 80.2128 28.7116C80.8342 28.7116 81.3882 28.8271 81.8747 29.0579C82.3612 29.2852 82.7536 29.6048 83.0519 30.0167C83.3538 30.4286 83.5331 30.9098 83.5899 31.4602H82.0398C81.9546 31.0767 81.7593 30.7464 81.4539 30.4695C81.1521 30.1925 80.7472 30.054 80.2394 30.054C79.7955 30.054 79.4067 30.1712 79.0729 30.4055C78.7426 30.6364 78.4852 30.9666 78.3005 31.3963C78.1158 31.8224 78.0235 32.3267 78.0235 32.9091C78.0235 33.5057 78.1141 34.0206 78.2952 34.4538C78.4763 34.8871 78.732 35.2227 79.0622 35.4606C79.396 35.6985 79.7884 35.8175 80.2394 35.8175C80.5413 35.8175 80.8147 35.7624 81.0597 35.6523C81.3083 35.5387 81.516 35.3771 81.683 35.1676C81.8534 34.9581 81.9724 34.706 82.0398 34.4112H83.5899C83.5331 34.9403 83.3609 35.4126 83.0732 35.8281C82.7856 36.2436 82.4003 36.5703 81.9173 36.8082C81.4379 37.0462 80.8751 37.1651 80.2288 37.1651ZM88.8124 28.8182V30.0966H84.3433V28.8182H88.8124ZM85.5418 26.858H87.1345V34.5977C87.1345 34.9066 87.1806 35.1392 87.273 35.2955C87.3653 35.4482 87.4842 35.5529 87.6298 35.6097C87.779 35.663 87.9406 35.6896 88.1146 35.6896C88.2424 35.6896 88.3543 35.6808 88.4502 35.663C88.546 35.6452 88.6206 35.631 88.6739 35.6204L88.9615 36.9361C88.8692 36.9716 88.7378 37.0071 88.5673 37.0426C88.3969 37.0817 88.1838 37.103 87.9281 37.1065C87.5091 37.1136 87.1185 37.0391 86.7563 36.8828C86.394 36.7266 86.1011 36.4851 85.8774 36.1584C85.6536 35.8317 85.5418 35.4215 85.5418 34.9279V26.858ZM95.7177 37L93.31 28.8182H94.956L96.5593 34.8267H96.6392L98.2479 28.8182H99.8938L101.492 34.8001H101.572L103.164 28.8182H104.81L102.408 37H100.783L99.1215 31.0927H98.9989L97.337 37H95.7177ZM106.022 37V28.8182H107.615V37H106.022ZM106.826 27.5558C106.549 27.5558 106.311 27.4634 106.112 27.2788C105.917 27.0906 105.819 26.8668 105.819 26.6076C105.819 26.3448 105.917 26.1211 106.112 25.9364C106.311 25.7482 106.549 25.6541 106.826 25.6541C107.103 25.6541 107.339 25.7482 107.535 25.9364C107.733 26.1211 107.833 26.3448 107.833 26.6076C107.833 26.8668 107.733 27.0906 107.535 27.2788C107.339 27.4634 107.103 27.5558 106.826 27.5558ZM113.276 28.8182V30.0966H108.807V28.8182H113.276ZM110.006 26.858H111.599V34.5977C111.599 34.9066 111.645 35.1392 111.737 35.2955C111.829 35.4482 111.948 35.5529 112.094 35.6097C112.243 35.663 112.405 35.6896 112.579 35.6896C112.706 35.6896 112.818 35.6808 112.914 35.663C113.01 35.6452 113.085 35.631 113.138 35.6204L113.426 36.9361C113.333 36.9716 113.202 37.0071 113.031 37.0426C112.861 37.0817 112.648 37.103 112.392 37.1065C111.973 37.1136 111.583 37.0391 111.22 36.8828C110.858 36.7266 110.565 36.4851 110.341 36.1584C110.118 35.8317 110.006 35.4215 110.006 34.9279V26.858ZM116.507 32.142V37H114.914V26.0909H116.485V30.1499H116.587C116.778 29.7095 117.071 29.3597 117.466 29.1005C117.86 28.8413 118.375 28.7116 119.01 28.7116C119.571 28.7116 120.061 28.8271 120.48 29.0579C120.903 29.2887 121.23 29.6332 121.461 30.0913C121.695 30.5458 121.812 31.114 121.812 31.7958V37H120.219V31.9876C120.219 31.3874 120.065 30.9222 119.756 30.592C119.447 30.2582 119.017 30.0913 118.467 30.0913C118.091 30.0913 117.753 30.1712 117.455 30.331C117.16 30.4908 116.928 30.7251 116.757 31.0341C116.59 31.3395 116.507 31.7088 116.507 32.142ZM130.754 37.1651C129.987 37.1651 129.317 36.9893 128.745 36.6378C128.174 36.2862 127.73 35.7944 127.414 35.1623C127.098 34.5302 126.94 33.7915 126.94 32.9464C126.94 32.0977 127.098 31.3555 127.414 30.7198C127.73 30.0842 128.174 29.5906 128.745 29.239C129.317 28.8874 129.987 28.7116 130.754 28.7116C131.521 28.7116 132.19 28.8874 132.762 29.239C133.333 29.5906 133.777 30.0842 134.093 30.7198C134.409 31.3555 134.567 32.0977 134.567 32.9464C134.567 33.7915 134.409 34.5302 134.093 35.1623C133.777 35.7944 133.333 36.2862 132.762 36.6378C132.19 36.9893 131.521 37.1651 130.754 37.1651ZM130.759 35.8281C131.256 35.8281 131.668 35.6967 131.995 35.4339C132.321 35.1712 132.563 34.8214 132.719 34.3846C132.879 33.9478 132.959 33.4666 132.959 32.9411C132.959 32.419 132.879 31.9396 132.719 31.5028C132.563 31.0625 132.321 30.7092 131.995 30.4428C131.668 30.1765 131.256 30.0433 130.759 30.0433C130.258 30.0433 129.843 30.1765 129.512 30.4428C129.186 30.7092 128.942 31.0625 128.783 31.5028C128.626 31.9396 128.548 32.419 128.548 32.9411C128.548 33.4666 128.626 33.9478 128.783 34.3846C128.942 34.8214 129.186 35.1712 129.512 35.4339C129.843 35.6967 130.258 35.8281 130.759 35.8281ZM141.228 33.6069V28.8182H142.826V37H141.26V35.5831H141.175C140.987 36.0199 140.685 36.3839 140.269 36.6751C139.857 36.9627 139.344 37.1065 138.73 37.1065C138.204 37.1065 137.739 36.9911 137.334 36.7603C136.933 36.5259 136.617 36.1797 136.386 35.7216C136.159 35.2635 136.045 34.6971 136.045 34.0224V28.8182H137.638V33.8306C137.638 34.3881 137.792 34.832 138.101 35.1623C138.41 35.4925 138.812 35.6577 139.305 35.6577C139.604 35.6577 139.9 35.5831 140.195 35.4339C140.493 35.2848 140.74 35.0593 140.935 34.7575C141.134 34.4556 141.232 34.0721 141.228 33.6069ZM144.666 37V28.8182H146.206V30.1179H146.291C146.44 29.6776 146.703 29.3313 147.079 29.0792C147.459 28.8235 147.889 28.6957 148.368 28.6957C148.468 28.6957 148.585 28.6992 148.72 28.7063C148.858 28.7134 148.967 28.7223 149.045 28.733V30.2564C148.981 30.2386 148.867 30.2191 148.704 30.1978C148.54 30.1729 148.377 30.1605 148.214 30.1605C147.837 30.1605 147.502 30.2404 147.207 30.4002C146.916 30.5565 146.685 30.7749 146.515 31.0554C146.344 31.3324 146.259 31.6484 146.259 32.0036V37H144.666ZM157.319 37.1651C156.513 37.1651 155.819 36.9929 155.236 36.6484C154.657 36.3004 154.21 35.8121 153.894 35.1836C153.581 34.5515 153.425 33.8111 153.425 32.9624C153.425 32.1243 153.581 31.3857 153.894 30.7464C154.21 30.1072 154.65 29.6083 155.215 29.2496C155.783 28.891 156.447 28.7116 157.207 28.7116C157.669 28.7116 158.116 28.788 158.549 28.9407C158.983 29.0934 159.372 29.3331 159.716 29.6598C160.06 29.9865 160.332 30.4109 160.531 30.9329C160.73 31.4513 160.829 32.0817 160.829 32.8239V33.3885H154.325V32.1953H159.269C159.269 31.7763 159.183 31.4052 159.013 31.082C158.842 30.7553 158.603 30.4979 158.294 30.3097C157.988 30.1214 157.63 30.0273 157.218 30.0273C156.77 30.0273 156.38 30.1374 156.046 30.3576C155.716 30.5742 155.46 30.8583 155.279 31.2099C155.101 31.5579 155.013 31.9361 155.013 32.3445V33.2766C155.013 33.8235 155.108 34.2887 155.3 34.6722C155.496 35.0558 155.767 35.3487 156.115 35.5511C156.463 35.75 156.87 35.8494 157.335 35.8494C157.637 35.8494 157.912 35.8068 158.161 35.7216C158.409 35.6328 158.624 35.5014 158.805 35.3274C158.986 35.1534 159.125 34.9386 159.221 34.6829L160.728 34.9545C160.607 35.3984 160.391 35.7873 160.078 36.1211C159.769 36.4513 159.38 36.7088 158.912 36.8935C158.447 37.0746 157.916 37.1651 157.319 37.1651ZM163.363 28.8182L165.169 32.0036L166.991 28.8182H168.732L166.181 32.9091L168.754 37H167.012L165.169 33.9425L163.331 37H161.584L164.13 32.9091L161.616 28.8182H163.363ZM170.068 40.0682V28.8182H171.623V30.1445H171.756C171.849 29.9741 171.982 29.777 172.156 29.5533C172.33 29.3295 172.571 29.1342 172.88 28.9673C173.189 28.7969 173.598 28.7116 174.105 28.7116C174.766 28.7116 175.355 28.8786 175.874 29.2124C176.392 29.5462 176.799 30.0273 177.094 30.6559C177.392 31.2844 177.541 32.0408 177.541 32.9251C177.541 33.8093 177.394 34.5675 177.099 35.1996C176.804 35.8281 176.399 36.3129 175.884 36.6538C175.37 36.9911 174.782 37.1598 174.121 37.1598C173.624 37.1598 173.218 37.0763 172.902 36.9094C172.589 36.7425 172.344 36.5472 172.166 36.3235C171.989 36.0998 171.852 35.9009 171.756 35.7269H171.66V40.0682H170.068ZM171.628 32.9091C171.628 33.4844 171.712 33.9886 171.879 34.4219C172.046 34.8551 172.287 35.1942 172.603 35.4393C172.919 35.6808 173.306 35.8015 173.764 35.8015C174.24 35.8015 174.638 35.6754 174.958 35.4233C175.277 35.1676 175.519 34.8214 175.682 34.3846C175.849 33.9478 175.932 33.456 175.932 32.9091C175.932 32.3693 175.851 31.8846 175.687 31.4549C175.528 31.0252 175.286 30.6861 174.963 30.4375C174.643 30.1889 174.244 30.0646 173.764 30.0646C173.303 30.0646 172.912 30.1836 172.593 30.4215C172.277 30.6594 172.037 30.9915 171.873 31.4176C171.71 31.8437 171.628 32.3409 171.628 32.9091ZM182.552 37.1651C181.746 37.1651 181.051 36.9929 180.469 36.6484C179.89 36.3004 179.443 35.8121 179.127 35.1836C178.814 34.5515 178.658 33.8111 178.658 32.9624C178.658 32.1243 178.814 31.3857 179.127 30.7464C179.443 30.1072 179.883 29.6083 180.448 29.2496C181.016 28.891 181.68 28.7116 182.44 28.7116C182.902 28.7116 183.349 28.788 183.782 28.9407C184.216 29.0934 184.604 29.3331 184.949 29.6598C185.293 29.9865 185.565 30.4109 185.764 30.9329C185.963 31.4513 186.062 32.0817 186.062 32.8239V33.3885H179.558V32.1953H184.501C184.501 31.7763 184.416 31.4052 184.246 31.082C184.075 30.7553 183.836 30.4979 183.527 30.3097C183.221 30.1214 182.863 30.0273 182.451 30.0273C182.003 30.0273 181.613 30.1374 181.279 30.3576C180.948 30.5742 180.693 30.8583 180.512 31.2099C180.334 31.5579 180.245 31.9361 180.245 32.3445V33.2766C180.245 33.8235 180.341 34.2887 180.533 34.6722C180.728 35.0558 181 35.3487 181.348 35.5511C181.696 35.75 182.103 35.8494 182.568 35.8494C182.87 35.8494 183.145 35.8068 183.393 35.7216C183.642 35.6328 183.857 35.5014 184.038 35.3274C184.219 35.1534 184.358 34.9386 184.453 34.6829L185.961 34.9545C185.84 35.3984 185.624 35.7873 185.311 36.1211C185.002 36.4513 184.613 36.7088 184.145 36.8935C183.679 37.0746 183.148 37.1651 182.552 37.1651ZM187.529 37V28.8182H189.069V30.1179H189.154C189.303 29.6776 189.566 29.3313 189.942 29.0792C190.322 28.8235 190.752 28.6957 191.231 28.6957C191.331 28.6957 191.448 28.6992 191.583 28.7063C191.721 28.7134 191.83 28.7223 191.908 28.733V30.2564C191.844 30.2386 191.73 30.2191 191.567 30.1978C191.404 30.1729 191.24 30.1605 191.077 30.1605C190.7 30.1605 190.365 30.2404 190.07 30.4002C189.779 30.5565 189.548 30.7749 189.378 31.0554C189.207 31.3324 189.122 31.6484 189.122 32.0036V37H187.529ZM197.289 28.8182V30.0966H192.82V28.8182H197.289ZM194.018 26.858H195.611V34.5977C195.611 34.9066 195.657 35.1392 195.749 35.2955C195.842 35.4482 195.961 35.5529 196.106 35.6097C196.255 35.663 196.417 35.6896 196.591 35.6896C196.719 35.6896 196.831 35.6808 196.927 35.663C197.022 35.6452 197.097 35.631 197.15 35.6204L197.438 36.9361C197.346 36.9716 197.214 37.0071 197.044 37.0426C196.873 37.0817 196.66 37.103 196.405 37.1065C195.985 37.1136 195.595 37.0391 195.233 36.8828C194.87 36.7266 194.577 36.4851 194.354 36.1584C194.13 35.8317 194.018 35.4215 194.018 34.9279V26.858ZM204.75 30.8157L203.306 31.0714C203.246 30.8867 203.15 30.7109 203.019 30.544C202.891 30.3771 202.717 30.2404 202.497 30.1339C202.276 30.0273 202.001 29.9741 201.671 29.9741C201.22 29.9741 200.844 30.0753 200.542 30.2777C200.24 30.4766 200.089 30.734 200.089 31.0501C200.089 31.3235 200.19 31.5437 200.393 31.7106C200.595 31.8775 200.922 32.0142 201.373 32.1207L202.672 32.419C203.425 32.593 203.986 32.8612 204.356 33.2234C204.725 33.5856 204.91 34.0561 204.91 34.6349C204.91 35.125 204.768 35.5618 204.483 35.9453C204.203 36.3253 203.81 36.6236 203.306 36.8402C202.806 37.0568 202.225 37.1651 201.564 37.1651C200.648 37.1651 199.901 36.9698 199.322 36.5792C198.743 36.185 198.388 35.6257 198.257 34.9013L199.796 34.6669C199.892 35.0682 200.089 35.3718 200.387 35.5778C200.685 35.7802 201.074 35.8814 201.554 35.8814C202.076 35.8814 202.493 35.7731 202.806 35.5565C203.118 35.3363 203.274 35.0682 203.274 34.7521C203.274 34.4964 203.178 34.2816 202.987 34.1076C202.798 33.9336 202.509 33.8022 202.118 33.7134L200.733 33.4098C199.97 33.2358 199.405 32.9588 199.04 32.5788C198.677 32.1989 198.496 31.7177 198.496 31.1353C198.496 30.6523 198.631 30.2298 198.901 29.8675C199.171 29.5053 199.544 29.223 200.02 29.0206C200.495 28.8146 201.041 28.7116 201.655 28.7116C202.539 28.7116 203.235 28.9034 203.743 29.2869C204.251 29.6669 204.586 30.1765 204.75 30.8157Z" fill="white"/>
</svg>
