<svg width="150" height="43" viewBox="0 0 150 43" fill="none" xmlns="http://www.w3.org/2000/svg">
<g clip-path="url(#clip0_1_732)">
<path d="M14.6875 43C11.875 43 9.4375 42.4688 7.375 41.4062C5.3125 40.3229 3.70833 38.875 2.5625 37.0625C1.4375 35.25 0.875 33.2604 0.875 31.0938V12.0938C0.875 9.90625 1.4375 7.91667 2.5625 6.125C3.70833 4.3125 5.3125 2.875 7.375 1.8125C9.4375 0.729167 11.875 0.1875 14.6875 0.1875H24.3125C27.125 0.1875 29.5625 0.729167 31.625 1.8125C33.7083 2.875 35.3125 4.3125 36.4375 6.125C37.5625 7.91667 38.125 9.90625 38.125 12.0938V31.0938C38.125 33.2604 37.5625 35.25 36.4375 37.0625C35.3125 38.875 33.7083 40.3229 31.625 41.4062C29.5625 42.4688 27.125 43 24.3125 43H14.6875ZM19.5625 28.8438H22.9062V6.3125H30.25V3H12.1875V6.3125H19.5625V28.8438ZM51.6875 43C48.875 43 46.4375 42.4688 44.375 41.4062C42.3125 40.3229 40.7083 38.875 39.5625 37.0625C38.4375 35.25 37.875 33.2604 37.875 31.0938V12.0938C37.875 9.90625 38.4375 7.91667 39.5625 6.125C40.7083 4.3125 42.3125 2.875 44.375 1.8125C46.4375 0.729167 48.875 0.1875 51.6875 0.1875H61.3125C64.125 0.1875 66.5625 0.729167 68.625 1.8125C70.7083 2.875 72.3125 4.3125 73.4375 6.125C74.5625 7.91667 75.125 9.90625 75.125 12.0938V31.0938C75.125 33.2604 74.5625 35.25 73.4375 37.0625C72.3125 38.875 70.7083 40.3229 68.625 41.4062C66.5625 42.4688 64.125 43 61.3125 43H51.6875ZM50.5625 28.8438H66.2812V25.5312H53.8125V17.5938H64.25V14.3125H53.8125V6.3125H65.8438V3H50.5625V28.8438ZM88.6875 43C85.875 43 83.4375 42.4688 81.375 41.4062C79.3125 40.3229 77.7083 38.875 76.5625 37.0625C75.4375 35.25 74.875 33.2604 74.875 31.0938V12.0938C74.875 9.90625 75.4375 7.91667 76.5625 6.125C77.7083 4.3125 79.3125 2.875 81.375 1.8125C83.4375 0.729167 85.875 0.1875 88.6875 0.1875H98.3125C101.125 0.1875 103.562 0.729167 105.625 1.8125C107.708 2.875 109.312 4.3125 110.438 6.125C111.562 7.91667 112.125 9.90625 112.125 12.0938V31.0938C112.125 33.2604 111.562 35.25 110.438 37.0625C109.312 38.875 107.708 40.3229 105.625 41.4062C103.562 42.4688 101.125 43 98.3125 43H88.6875ZM90.4375 28.8438H98.5625L101.75 28.4688L103.75 26.5L104.188 23.8125V19.0625L103.75 16.375L101.75 14.4062L98.5 14.0625H91.5L89.5938 13.6875L89.1562 11.8438V8.5625L89.5938 6.71875L91.6562 6.3125H99.5938L102.531 6.90625L103.281 3.5L99.6562 3H91.4375L88.3125 3.4375L86.2812 5.4375L85.875 8.0625V12.3438L86.2812 14.9688L88.3125 16.9375L91.4375 17.3438H98.5L100.406 17.6562L100.844 19.375V23.4688L100.406 25.2188L98.375 25.5312H90.625L87.5625 25.0312L86.7812 28.4062L90.4375 28.8438ZM125.688 43C122.875 43 120.438 42.4688 118.375 41.4062C116.312 40.3229 114.708 38.875 113.562 37.0625C112.438 35.25 111.875 33.2604 111.875 31.0938V12.0938C111.875 9.90625 112.438 7.91667 113.562 6.125C114.708 4.3125 116.312 2.875 118.375 1.8125C120.438 0.729167 122.875 0.1875 125.688 0.1875H135.312C138.125 0.1875 140.562 0.729167 142.625 1.8125C144.708 2.875 146.312 4.3125 147.438 6.125C148.562 7.91667 149.125 9.90625 149.125 12.0938V31.0938C149.125 33.2604 148.562 35.25 147.438 37.0625C146.312 38.875 144.708 40.3229 142.625 41.4062C140.562 42.4688 138.125 43 135.312 43H125.688ZM130.562 28.8438H133.906V6.3125H141.25V3H123.188V6.3125H130.562V28.8438Z" fill="white"/>
</g>
<defs>
<clipPath id="clip0_1_732">
<rect width="150" height="43" fill="white"/>
</clipPath>
</defs>
</svg>
